<svg width="50" height="53" viewBox="0 0 50 53" fill="none" xmlns="http://www.w3.org/2000/svg">
<path d="M49.8708 30.3746L47.3399 26.2699C46.2223 24.4561 44.3236 23.373 42.2596 23.373H35.7142V19.3804C35.7142 16.9427 33.8441 14.9604 31.5444 14.9604H19.2915C18.6039 11.1541 15.4432 8.26636 11.6548 8.26636C7.36509 8.26636 3.87555 11.9658 3.87555 16.5124C3.87555 19.3713 5.25656 21.8932 7.34738 23.373H0.79382C0.35513 23.373 0 23.7494 0 24.2144C0 24.6794 0.35513 25.0559 0.79382 25.0559H8.73021V26.7383H5.55538C5.11714 26.7383 4.76201 27.1147 4.76201 27.5797C4.76201 28.0448 5.11714 28.4207 5.55538 28.4207H8.73021V30.1031H0.79382C0.35513 30.1031 0 30.4796 0 30.9446C0 31.4096 0.35513 31.786 0.79382 31.786H8.73021V35.5119C7.33103 36.1661 6.3492 37.6458 6.3492 39.3682V40.1986C6.3492 40.6636 6.70478 41.04 7.14302 41.04H14.182C14.6335 43.0984 16.3746 44.6388 18.4522 44.6388C20.5303 44.6388 22.271 43.0984 22.7224 41.04H37.9917C38.4435 43.0984 40.1847 44.6388 42.2618 44.6388C44.339 44.6388 46.0806 43.0984 46.532 41.04H49.2064C49.6451 41.04 49.9998 40.6636 49.9998 40.1986V30.8348C49.9998 30.6712 49.9548 30.5109 49.8708 30.3746ZM5.46274 16.5124C5.46274 12.8934 8.24065 9.94878 11.6548 9.94878C15.0694 9.94878 17.8469 12.8934 17.8469 16.5124C17.8469 20.1314 15.0694 23.076 11.6548 23.076C8.24065 23.076 5.46274 20.1314 5.46274 16.5124ZM10.3174 31.786H11.9046C12.3433 31.786 12.6984 31.4096 12.6984 30.9446C12.6984 30.4796 12.3433 30.1031 11.9046 30.1031H10.3174V28.4207H15.8732C16.3115 28.4207 16.6666 28.0448 16.6666 27.5797C16.6666 27.1147 16.3115 26.7383 15.8732 26.7383H10.3174V25.0559H20.6348C21.073 25.0559 21.4286 24.6794 21.4286 24.2144C21.4286 23.7494 21.073 23.373 20.6348 23.373H15.9622C18.0208 21.9158 19.3864 19.4473 19.4282 16.6428H31.5448C32.9685 16.6428 34.127 17.8713 34.127 19.3804V35.1509H10.3274C10.3242 35.1509 10.321 35.1518 10.3174 35.1518V31.786ZM34.127 39.3571H22.7946C22.6697 38.3896 22.2647 37.5173 21.6666 36.8333H34.127V39.3571ZM10.3274 36.8333H15.2379C14.6403 37.5173 14.2347 38.3896 14.1103 39.3571H7.93639C7.94184 37.965 9.01268 36.8333 10.3274 36.8333ZM18.4522 42.9564C16.9086 42.9564 15.6521 41.6249 15.6521 39.9882C15.6521 38.352 16.9086 37.0201 18.4522 37.0201C19.9963 37.0201 21.2524 38.352 21.2524 39.9882C21.2524 41.6249 19.9963 42.9564 18.4522 42.9564ZM42.2618 42.9564C40.7183 42.9564 39.4617 41.6249 39.4617 39.9882C39.4617 38.352 40.7183 37.0201 42.2618 37.0201C43.8059 37.0201 45.062 38.352 45.062 39.9882C45.062 41.6249 43.8059 42.9564 42.2618 42.9564ZM48.4126 39.3571H46.6042C46.3122 37.0913 44.4785 35.3376 42.2618 35.3376C40.0452 35.3376 38.2119 37.0913 37.9195 39.3571H35.7142V25.0559H42.2596C43.785 25.0559 45.1878 25.8535 46.0116 27.1898L48.4126 31.0851V39.3571Z" fill="#212121"/>
<path d="M43.5601 39.9882C43.5601 40.7483 42.9788 41.3645 42.2617 41.3645C41.5447 41.3645 40.9634 40.7483 40.9634 39.9882C40.9634 39.2281 41.5447 38.6119 42.2617 38.6119C42.9788 38.6119 43.5601 39.2281 43.5601 39.9882Z" fill="#212121"/>
<path d="M19.7506 39.9882C19.7506 40.7483 19.1693 41.3645 18.4522 41.3645C17.7356 41.3645 17.1543 40.7483 17.1543 39.9882C17.1543 39.2281 17.7356 38.6119 18.4522 38.6119C19.1693 38.6119 19.7506 39.2281 19.7506 39.9882Z" fill="#212121"/>
<path d="M12.6985 16.5123V12.8317C12.6985 12.3667 12.3434 11.9907 11.9047 11.9907C11.4665 11.9907 11.1113 12.3667 11.1113 12.8317V16.2379L9.49145 18.5933C9.23305 18.9688 9.31071 19.4944 9.66493 19.7679C9.80662 19.8776 9.9701 19.9301 10.1322 19.9301C10.377 19.9301 10.6186 19.8102 10.7739 19.584L12.5464 17.0076C12.6449 16.8642 12.6985 16.6909 12.6985 16.5123Z" fill="#212121"/>
<path d="M41.9946 25.8969H40.4764C40.0377 25.8969 39.6826 26.2733 39.6826 26.7383V32.627C39.6826 33.092 40.0377 33.4685 40.4764 33.4685H45.8179C46.3156 33.4685 46.7612 33.1955 47.0109 32.7396C47.2607 32.2838 47.2612 31.7379 47.015 31.283L45.1617 27.8445C44.5146 26.644 43.3007 25.8969 41.9946 25.8969ZM41.2703 31.786V27.5797H41.9946C42.7326 27.5797 43.4178 28.001 43.7834 28.6797L45.4578 31.786H41.2703Z" fill="#212121"/>
</svg>
