<svg width="52" height="52" viewBox="0 0 52 52" fill="none" xmlns="http://www.w3.org/2000/svg">
<path d="M16.1421 26.3047H17.6717V27.7367C17.6717 27.8983 17.7359 28.0533 17.8502 28.1676C17.9645 28.2819 18.1195 28.3461 18.2811 28.3461C18.4427 28.3461 18.5977 28.2819 18.712 28.1676C18.8263 28.0533 18.8905 27.8983 18.8905 27.7367V26.3047H20.3816C20.5432 26.3047 20.6982 26.2405 20.8125 26.1262C20.9268 26.0119 20.991 25.8569 20.991 25.6953C20.991 25.5337 20.9268 25.3787 20.8125 25.2644C20.6982 25.1501 20.5432 25.0859 20.3816 25.0859H18.8905V23.6058C18.8905 23.4442 18.8263 23.2892 18.712 23.1749C18.5977 23.0607 18.4427 22.9965 18.2811 22.9965C18.1195 22.9965 17.9645 23.0607 17.8502 23.1749C17.7359 23.2892 17.6717 23.4442 17.6717 23.6058V25.0859H16.1421C15.9805 25.0859 15.8255 25.1501 15.7112 25.2644C15.5969 25.3787 15.5327 25.5337 15.5327 25.6953C15.5327 25.8569 15.5969 26.0119 15.7112 26.1262C15.8255 26.2405 15.9805 26.3047 16.1421 26.3047Z" fill="#212121" stroke="#212121" stroke-width="0.5"/>
<path d="M12.6221 25.6711C12.6221 26.7865 12.9529 27.8769 13.5726 28.8044C14.1923 29.7318 15.0731 30.4546 16.1036 30.8815C17.1342 31.3083 18.2681 31.42 19.3621 31.2024C20.4561 30.9848 21.461 30.4477 22.2498 29.6589C23.0385 28.8702 23.5756 27.8653 23.7932 26.7713C24.0108 25.6773 23.8992 24.5433 23.4723 23.5128C23.0455 22.4823 22.3226 21.6015 21.3952 20.9818C20.4677 20.3621 19.3774 20.0313 18.2619 20.0312C16.7667 20.0329 15.3331 20.6277 14.2758 21.685C13.2185 22.7423 12.6238 24.1759 12.6221 25.6711ZM18.2619 21.25C19.1364 21.25 19.9911 21.5093 20.7182 21.9951C21.4452 22.4809 22.0119 23.1714 22.3465 23.9792C22.6811 24.7871 22.7687 25.676 22.5981 26.5336C22.4275 27.3912 22.0064 28.179 21.3881 28.7973C20.7698 29.4156 19.9821 29.8367 19.1245 30.0073C18.2668 30.1779 17.3779 30.0903 16.57 29.7557C15.7622 29.4211 15.0717 28.8544 14.5859 28.1274C14.1001 27.4003 13.8408 26.5455 13.8408 25.6711C13.8421 24.499 14.3084 23.3752 15.1372 22.5464C15.966 21.7175 17.0898 21.2513 18.2619 21.25Z" fill="#212121" stroke="#212121" stroke-width="0.5"/>
<path d="M31.8483 27.4643C31.9596 27.5815 32.1128 27.6497 32.2744 27.654C32.436 27.6582 32.5926 27.5981 32.7098 27.4868L33.7379 26.5111L34.7661 27.4868C34.8237 27.5442 34.8922 27.5894 34.9675 27.6199C35.0428 27.6504 35.1234 27.6655 35.2047 27.6644C35.2859 27.6632 35.3661 27.6459 35.4405 27.6133C35.515 27.5807 35.5821 27.5336 35.6381 27.4746C35.694 27.4157 35.7376 27.3462 35.7663 27.2702C35.795 27.1942 35.8082 27.1132 35.8051 27.032C35.802 26.9508 35.7827 26.871 35.7484 26.7974C35.714 26.7238 35.6653 26.6577 35.605 26.6032L34.6232 25.6714L35.605 24.7397C35.6653 24.6851 35.714 24.6191 35.7484 24.5455C35.7827 24.4719 35.802 24.3921 35.8051 24.3109C35.8082 24.2297 35.795 24.1487 35.7663 24.0727C35.7376 23.9967 35.694 23.9272 35.6381 23.8683C35.5821 23.8093 35.515 23.7622 35.4405 23.7296C35.3661 23.697 35.2859 23.6796 35.2047 23.6785C35.1234 23.6774 35.0428 23.6925 34.9675 23.723C34.8922 23.7535 34.8237 23.7987 34.7661 23.8561L33.7379 24.8318L32.7098 23.8561C32.6523 23.7985 32.5838 23.7531 32.5084 23.7224C32.4331 23.6917 32.3523 23.6765 32.271 23.6775C32.1896 23.6786 32.1093 23.6959 32.0347 23.7285C31.9602 23.7611 31.8929 23.8083 31.8369 23.8673C31.7808 23.9263 31.7372 23.996 31.7085 24.0721C31.6799 24.1483 31.6667 24.2294 31.6699 24.3107C31.6731 24.392 31.6925 24.4718 31.7271 24.5455C31.7616 24.6192 31.8105 24.6852 31.871 24.7397L32.8528 25.6714L31.871 26.6032C31.7539 26.7145 31.6857 26.8676 31.6815 27.0291C31.6772 27.1905 31.7372 27.3471 31.8483 27.4643Z" fill="#212121" stroke="#212121" stroke-width="0.5"/>
<path d="M33.7378 31.3109C34.8533 31.3109 35.9437 30.9802 36.8712 30.3605C37.7987 29.7408 38.5216 28.86 38.9485 27.8294C39.3754 26.7988 39.4871 25.6648 39.2695 24.5708C39.0519 23.4768 38.5148 22.4718 37.726 21.683C36.9373 20.8943 35.9323 20.3571 34.8383 20.1395C33.7443 19.9219 32.6103 20.0336 31.5797 20.4604C30.5491 20.8873 29.6683 21.6102 29.0486 22.5377C28.4289 23.4652 28.0981 24.5556 28.0981 25.6711C28.0999 27.1663 28.6946 28.5998 29.7519 29.6571C30.8091 30.7144 32.2426 31.3091 33.7378 31.3109ZM33.7378 21.25C34.6122 21.2499 35.467 21.5092 36.1941 21.995C36.9212 22.4808 37.4879 23.1712 37.8225 23.9791C38.1572 24.7869 38.2448 25.6759 38.0742 26.5335C37.9036 27.3911 37.4826 28.1789 36.8643 28.7972C36.246 29.4156 35.4582 29.8366 34.6006 30.0073C33.743 30.1779 32.854 30.0903 32.0462 29.7557C31.2383 29.4211 30.5478 28.8544 30.062 28.1274C29.5762 27.4003 29.3169 26.5455 29.3169 25.6711C29.3182 24.499 29.7844 23.3753 30.6132 22.5464C31.442 21.7176 32.5657 21.2514 33.7378 21.25Z" fill="#212121" stroke="#212121" stroke-width="0.5"/>
<path d="M20.1333 36.9235C20.019 36.8093 19.864 36.7451 19.7024 36.7451C19.5409 36.7451 19.3859 36.8093 19.2716 36.9235L16.3509 39.8442C16.2366 39.9584 16.1724 40.1134 16.1724 40.2751C16.1724 40.4367 16.2365 40.5917 16.3508 40.706C16.4651 40.8203 16.6201 40.8845 16.7817 40.8845C16.9433 40.8845 17.0983 40.8203 17.2126 40.706L20.1333 37.7854C20.1899 37.7288 20.2348 37.6616 20.2654 37.5877C20.296 37.5137 20.3118 37.4345 20.3118 37.3545C20.3118 37.2744 20.296 37.1952 20.2654 37.1212C20.2348 37.0473 20.1899 36.9801 20.1333 36.9235Z" fill="#212121"/>
<path d="M18.2619 33.1265C17.1465 33.1264 16.0561 33.4572 15.1286 34.0769C14.2012 34.6966 13.4783 35.5774 13.0514 36.6079C12.6245 37.6384 12.5128 38.7723 12.7304 39.8664C12.948 40.9604 13.4851 41.9653 14.2738 42.754C15.0625 43.5428 16.0674 44.08 17.1614 44.2976C18.2554 44.5152 19.3894 44.4036 20.4199 43.9768C21.4505 43.5499 22.3313 42.8271 22.951 41.8997C23.5708 40.9722 23.9016 39.8819 23.9016 38.7664C23.8999 37.2712 23.3052 35.8377 22.248 34.7803C21.1907 33.723 19.7572 33.1282 18.2619 33.1265ZM18.2619 43.1872C17.3875 43.1873 16.5328 42.928 15.8057 42.4422C15.0787 41.9564 14.512 41.2659 14.1774 40.4581C13.8427 39.6503 13.7552 38.7613 13.9258 37.9037C14.0964 37.0461 14.5174 36.2584 15.1357 35.6401C15.7541 35.0218 16.5418 34.6007 17.3994 34.4301C18.257 34.2596 19.146 34.3471 19.9538 34.6818C20.7616 35.0164 21.4521 35.5831 21.9379 36.3102C22.4236 37.0372 22.6829 37.892 22.6829 38.7664C22.6815 39.9385 22.2152 41.0622 21.3864 41.8909C20.5577 42.7197 19.434 43.1859 18.2619 43.1872Z" fill="#212121" stroke="#212121" stroke-width="0.5"/>
<path d="M31.6182 39.4062H35.8577C36.0193 39.4062 36.1743 39.342 36.2886 39.2278C36.4029 39.1135 36.4671 38.9585 36.4671 38.7969C36.4671 38.6353 36.4029 38.4803 36.2886 38.366C36.1743 38.2517 36.0193 38.1875 35.8577 38.1875H31.6182C31.4565 38.1875 31.3016 38.2517 31.1873 38.366C31.073 38.4803 31.0088 38.6353 31.0088 38.7969C31.0088 38.9585 31.073 39.1135 31.1873 39.2278C31.3016 39.342 31.4565 39.4062 31.6182 39.4062Z" fill="#212121" stroke="#212121" stroke-width="0.5"/>
<path d="M33.7378 44.406C34.8533 44.406 35.9437 44.0753 36.8711 43.4556C37.7986 42.8359 38.5215 41.955 38.9484 40.9245C39.3752 39.894 39.4869 38.76 39.2693 37.666C39.0517 36.5719 38.5145 35.567 37.7258 34.7783C36.937 33.9895 35.9321 33.4524 34.8381 33.2348C33.7441 33.0172 32.6101 33.1289 31.5795 33.5558C30.549 33.9827 29.6682 34.7056 29.0485 35.6331C28.4288 36.5606 28.0981 37.651 28.0981 38.7664C28.0999 40.2616 28.6947 41.695 29.7519 42.7523C30.8092 43.8095 32.2426 44.4043 33.7378 44.406ZM33.7378 34.3452C34.6122 34.3452 35.467 34.6045 36.194 35.0902C36.921 35.576 37.4877 36.2664 37.8223 37.0743C38.157 37.8821 38.2446 38.771 38.074 39.6286C37.9034 40.4862 37.4824 41.2739 36.8641 41.8923C36.2459 42.5106 35.4582 42.9317 34.6006 43.1023C33.743 43.2729 32.8541 43.1854 32.0462 42.8508C31.2384 42.5162 30.5479 41.9496 30.0621 41.2226C29.5763 40.4956 29.3169 39.6408 29.3169 38.7664C29.3182 37.5943 29.7844 36.4705 30.6132 35.6417C31.4419 34.8128 32.5657 34.3466 33.7378 34.3452Z" fill="#212121" stroke="#212121" stroke-width="0.5"/>
<path d="M17.6829 38.2127C17.9151 37.9805 18.0596 37.675 18.0918 37.3482C18.124 37.0214 18.0419 36.6935 17.8595 36.4204C17.677 36.1474 17.4055 35.946 17.0913 35.8507C16.777 35.7553 16.4394 35.7719 16.136 35.8976C15.8326 36.0233 15.5822 36.2502 15.4274 36.5399C15.2726 36.8295 15.223 37.1638 15.287 37.4859C15.3511 37.808 15.5249 38.0979 15.7787 38.3062C16.0326 38.5146 16.3508 38.6284 16.6792 38.6284C16.8657 38.6289 17.0504 38.5925 17.2227 38.5211C17.395 38.4497 17.5515 38.3449 17.683 38.2126L17.6829 38.2127ZM16.5375 37.0671C16.5561 37.0483 16.5782 37.0333 16.6026 37.023C16.627 37.0128 16.6532 37.0074 16.6797 37.0073C16.7061 37.0072 16.7323 37.0124 16.7568 37.0225C16.7813 37.0326 16.8035 37.0474 16.8222 37.0661C16.8409 37.0848 16.8558 37.107 16.8658 37.1315C16.8759 37.156 16.8811 37.1822 16.881 37.2086C16.8809 37.2351 16.8755 37.2613 16.8653 37.2857C16.855 37.3101 16.84 37.3322 16.8212 37.3508C16.8026 37.3696 16.7805 37.3846 16.7561 37.3948C16.7317 37.4051 16.7055 37.4104 16.679 37.4105C16.6526 37.4106 16.6264 37.4054 16.6019 37.3953C16.5774 37.3852 16.5552 37.3704 16.5365 37.3517C16.5178 37.333 16.503 37.3107 16.4929 37.2863C16.4828 37.2618 16.4777 37.2356 16.4778 37.2091C16.4779 37.1827 16.4833 37.1565 16.4935 37.1321C16.5038 37.1077 16.5188 37.0856 16.5376 37.067L16.5375 37.0671Z" fill="#212121"/>
<path d="M18.7468 39.2763C18.5483 39.4748 18.4131 39.7277 18.3583 40.003C18.3036 40.2784 18.3317 40.5637 18.4391 40.8231C18.5465 41.0824 18.7284 41.3041 18.9619 41.4601C19.1953 41.616 19.4697 41.6992 19.7504 41.6992C20.0311 41.6992 20.3055 41.616 20.5389 41.4601C20.7723 41.3041 20.9543 41.0824 21.0617 40.8231C21.1691 40.5637 21.1972 40.2784 21.1425 40.003C21.0877 39.7277 20.9525 39.4748 20.754 39.2763C20.4877 39.0105 20.1267 38.8612 19.7504 38.8612C19.3741 38.8612 19.0131 39.0105 18.7468 39.2763ZM19.8923 40.4218C19.8642 40.4498 19.8285 40.4689 19.7896 40.4766C19.7507 40.4843 19.7104 40.4803 19.6738 40.4651C19.6372 40.45 19.6059 40.4243 19.5839 40.3913C19.5619 40.3583 19.5501 40.3196 19.5501 40.2799C19.5501 40.2403 19.5619 40.2016 19.5839 40.1686C19.6059 40.1356 19.6372 40.1099 19.6738 40.0948C19.7104 40.0796 19.7507 40.0756 19.7896 40.0833C19.8285 40.091 19.8642 40.1101 19.8923 40.1381C19.911 40.1566 19.9259 40.1787 19.9361 40.2031C19.9462 40.2274 19.9515 40.2536 19.9514 40.28C19.9514 40.3064 19.9462 40.3325 19.936 40.3568C19.9258 40.3812 19.9109 40.4033 19.8922 40.4218H19.8923Z" fill="#212121"/>
<path d="M39.6094 3.14844H12.4922C11.2531 3.14844 10.0648 3.64065 9.18867 4.5168C8.31253 5.39294 7.82031 6.58125 7.82031 7.82031V44.1797C7.82031 45.4187 8.31253 46.6071 9.18867 47.4832C10.0648 48.3593 11.2531 48.8516 12.4922 48.8516H39.6094C40.8484 48.8516 42.0367 48.3593 42.9129 47.4832C43.789 46.6071 44.2812 45.4187 44.2812 44.1797V7.82031C44.2812 6.58125 43.789 5.39294 42.9129 4.5168C42.0367 3.64065 40.8484 3.14844 39.6094 3.14844ZM42.9609 16.6562H18.6875C18.5259 16.6562 18.3709 16.7205 18.2566 16.8347C18.1423 16.949 18.0781 17.104 18.0781 17.2656C18.0781 17.4272 18.1423 17.5822 18.2566 17.6965C18.3709 17.8108 18.5259 17.875 18.6875 17.875H42.9609V44.171C42.9644 44.6229 42.8787 45.0711 42.7087 45.4899C42.5387 45.9087 42.2877 46.2898 41.9701 46.6114C41.6525 46.933 41.2746 47.1888 40.8579 47.364C40.4413 47.5393 39.9942 47.6306 39.5422 47.6328H12.4578C12.0058 47.6306 11.5587 47.5393 11.1421 47.364C10.7254 47.1888 10.3475 46.933 10.0299 46.6114C9.71234 46.2898 9.46134 45.9087 9.29131 45.4899C9.12128 45.0711 9.03556 44.6229 9.03906 44.171V17.875H14.625C14.7866 17.875 14.9416 17.8108 15.0559 17.6965C15.1702 17.5822 15.2344 17.4272 15.2344 17.2656C15.2344 17.104 15.1702 16.949 15.0559 16.8347C14.9416 16.7205 14.7866 16.6562 14.625 16.6562H9.03906V7.82905C9.03556 7.37708 9.12128 6.92886 9.29131 6.51008C9.46134 6.0913 9.71234 5.71019 10.0299 5.3886C10.3475 5.067 10.7254 4.81123 11.1421 4.63596C11.5587 4.46069 12.0058 4.36935 12.4578 4.36719H39.5422C39.9942 4.36935 40.4413 4.46069 40.8579 4.63596C41.2746 4.81123 41.6525 5.067 41.9701 5.3886C42.2877 5.71019 42.5387 6.0913 42.7087 6.51008C42.8787 6.92886 42.9644 7.37708 42.9609 7.82905V16.6562Z" fill="#212121" stroke="#212121" stroke-width="0.5"/>
<path d="M38.7969 7.41406H13.1016C12.9399 7.41406 12.7849 7.47826 12.6707 7.59254C12.5564 7.70682 12.4922 7.86182 12.4922 8.02344V13.8125C12.4922 13.9741 12.5564 14.1291 12.6707 14.2434C12.7849 14.3577 12.9399 14.4219 13.1016 14.4219H38.7969C38.9585 14.4219 39.1135 14.3577 39.2278 14.2434C39.342 14.1291 39.4062 13.9741 39.4062 13.8125V8.02344C39.4062 7.86182 39.342 7.70682 39.2278 7.59254C39.1135 7.47826 38.9585 7.41406 38.7969 7.41406ZM38.2891 13.2031H13.7109V8.63281H38.2891V13.2031Z" fill="#212121" stroke="#212121" stroke-width="0.5"/>
</svg>
