<svg width="28" height="28" viewBox="0 0 28 28" fill="none" xmlns="http://www.w3.org/2000/svg">
<path fill-rule="evenodd" clip-rule="evenodd" d="M20.1556 7.02572V7.02572C23.5555 10.4256 23.5555 15.938 20.1556 19.3379L15.4502 24.0433C14.649 24.8445 13.35 24.8445 12.5488 24.0433L7.84342 19.3379C4.44351 15.938 4.44351 10.4256 7.84342 7.02572V7.02572C11.2433 3.6258 16.7557 3.6258 20.1556 7.02572Z" stroke="#6F6B71" stroke-linecap="round" stroke-linejoin="round"/>
<path fill-rule="evenodd" clip-rule="evenodd" d="M20.1556 7.02572V7.02572C23.5555 10.4256 23.5555 15.938 20.1556 19.3379L15.4502 24.0433C14.649 24.8445 13.35 24.8445 12.5488 24.0433L7.84342 19.3379C4.44351 15.938 4.44351 10.4256 7.84342 7.02572V7.02572C11.2433 3.6258 16.7557 3.6258 20.1556 7.02572Z" stroke="#6F6B71" stroke-width="1.5" stroke-linecap="round" stroke-linejoin="round"/>
<ellipse cx="13.9999" cy="13.182" rx="2.98716" ry="2.98716" stroke="#6F6B71" stroke-width="1.5" stroke-linecap="round" stroke-linejoin="round"/>
</svg>
