<svg width="55" height="55" viewBox="0 0 55 55" fill="none" xmlns="http://www.w3.org/2000/svg">
<path d="M18.3222 18.3392H14.6578C14.1519 18.3392 13.7417 18.7494 13.7417 19.2553V22.9198C13.7417 23.4257 14.1519 23.8359 14.6578 23.8359H18.3222C18.8282 23.8359 19.2383 23.4257 19.2383 22.9198V19.2553C19.2383 18.7494 18.8282 18.3392 18.3222 18.3392ZM17.4061 22.0037H15.5739V20.1714H17.4061V22.0037Z" fill="#212121"/>
<path d="M25.6509 18.3392H21.9864C21.4805 18.3392 21.0703 18.7494 21.0703 19.2553V22.9198C21.0703 23.4257 21.4805 23.8359 21.9864 23.8359H25.6509C26.1568 23.8359 26.567 23.4257 26.567 22.9198V19.2553C26.567 18.7494 26.1568 18.3392 25.6509 18.3392ZM24.7347 22.0037H22.9025V20.1714H24.7347V22.0037Z" fill="#212121"/>
<path d="M32.9799 18.3392H29.3155C28.8096 18.3392 28.3994 18.7494 28.3994 19.2553V22.9198C28.3994 23.4257 28.8096 23.8359 29.3155 23.8359H32.9799C33.4859 23.8359 33.896 23.4257 33.896 22.9198V19.2553C33.896 18.7494 33.4859 18.3392 32.9799 18.3392ZM32.0638 22.0037H30.2316V20.1714H32.0638V22.0037Z" fill="#212121"/>
<path d="M40.3086 18.3392H36.6441C36.1382 18.3392 35.728 18.7494 35.728 19.2553V22.9198C35.728 23.4257 36.1382 23.8359 36.6441 23.8359H40.3086C40.8145 23.8359 41.2247 23.4257 41.2247 22.9198V19.2553C41.2247 18.7494 40.8145 18.3392 40.3086 18.3392ZM39.3925 22.0037H37.5602V20.1714H39.3925V22.0037Z" fill="#212121"/>
<path d="M54.5753 36.6433C54.5535 36.6294 54.5313 36.6166 54.5084 36.6047C52.9814 35.7232 51.1581 35.5117 49.4698 36.0202V9.95046C49.47 9.55836 49.2207 9.20956 48.8496 9.0829L27.7791 1.89879C27.5875 1.83191 27.3789 1.83191 27.1873 1.89879L6.11685 9.0829C5.74571 9.20956 5.49642 9.55836 5.49664 9.95046V37.4245H0.916108C0.410187 37.4245 0 37.8347 0 38.3406V52.2352C0 52.7411 0.410187 53.1513 0.916108 53.1513H9.16108C9.667 53.1513 10.0772 52.7411 10.0772 52.2352V49.4869H42.6805C42.3244 50.3595 42.1412 51.2928 42.1409 52.2352C42.1409 52.7411 42.5511 53.1513 43.0571 53.1513C43.563 53.1513 43.9732 52.7411 43.9732 52.2352C43.9772 49.8931 45.4634 47.8101 47.677 47.0446C47.7729 47.0292 47.8658 46.9983 47.9518 46.9529C48.4453 46.8106 48.9562 46.7385 49.4698 46.7386C49.9757 46.7386 50.3859 46.3284 50.3859 45.8225C50.3859 45.3166 49.9757 44.9064 49.4698 44.9064C48.9145 44.9082 48.3613 44.9734 47.8208 45.1006C47.114 44.283 46.724 43.2388 46.7215 42.158C46.7206 39.6283 48.7706 37.5767 51.3003 37.5758C52.105 37.5754 52.8955 37.7872 53.5923 38.1895C54.0193 38.4609 54.5855 38.3348 54.8569 37.9079C55.1283 37.481 55.0022 36.9147 54.5753 36.6433ZM8.24497 51.3191H1.83222V48.5708H8.24497V51.3191ZM8.24497 46.7386H1.83222V43.9903H8.24497V46.7386ZM8.24497 42.158H1.83222V39.2567H8.24497V42.158ZM40.3087 47.6547H14.6577V45.8225H40.3087V47.6547ZM40.3087 43.9903H14.6577V42.158H40.3087V43.9903ZM40.3087 40.3258H14.6577V38.4936H40.3087V40.3258ZM40.3087 36.6614H14.6577V34.8292H40.3087V36.6614ZM40.3087 32.997H14.6577V31.1648H40.3087V32.997ZM40.3087 29.3325H14.6577V27.5003H40.3087V29.3325ZM47.6376 36.9032C44.7468 38.9098 44.0206 42.8749 46.0124 45.7757C45.1425 46.2446 44.3758 46.8836 43.7579 47.6547H42.1409V26.5842C42.1409 26.0783 41.7308 25.6681 41.2248 25.6681H13.7416C13.2357 25.6681 12.8255 26.0783 12.8255 26.5842V47.6547H10.0772V38.3406C10.0772 37.8347 9.667 37.4245 9.16108 37.4245H7.32886V14.4101L27.4832 7.40001L47.6376 14.4101V36.9032ZM47.6376 12.4707L27.7846 5.56505C27.5895 5.49657 27.377 5.49657 27.1818 5.56505L7.32886 12.4707V10.6064L27.4832 3.73558L47.6376 10.6064V12.4707Z" fill="#212121"/>
</svg>
