<svg width="307" height="84" viewBox="0 0 307 84" fill="none" xmlns="http://www.w3.org/2000/svg">
<path d="M11.7082 48.369C8.42825 48.369 6.11858 47.3987 4.77925 45.458C3.43991 43.49 2.77025 40.784 2.77025 37.34V25.614C2.77025 21.9787 3.42625 19.218 4.73825 17.332C6.05025 15.446 8.37358 14.503 11.7082 14.503C14.6876 14.503 16.8196 15.3093 18.1042 16.922C19.4162 18.5347 20.0722 20.9127 20.0722 24.056V26.68H15.6852V24.343C15.6852 22.8123 15.6169 21.637 15.4802 20.817C15.3436 19.997 14.9882 19.341 14.4142 18.849C13.8676 18.357 12.9792 18.111 11.7492 18.111C10.4919 18.111 9.54891 18.3843 8.92025 18.931C8.31891 19.4503 7.92258 20.1883 7.73125 21.145C7.53991 22.0743 7.44425 23.3317 7.44425 24.917V38.078C7.44425 39.7727 7.58091 41.0983 7.85425 42.055C8.12758 43.0117 8.56491 43.695 9.16625 44.105C9.79491 44.515 10.6559 44.72 11.7492 44.72C12.9246 44.72 13.7992 44.4603 14.3732 43.941C14.9472 43.4217 15.3026 42.711 15.4392 41.809C15.6032 40.907 15.6852 39.677 15.6852 38.119V35.659H20.0722V38.119C20.0722 41.4263 19.4436 43.9683 18.1862 45.745C16.9562 47.4943 14.7969 48.369 11.7082 48.369ZM28.1348 18.234H22.5178V14.79H38.2208V18.234H32.7678V48H28.1348V18.234ZM41.4224 14.79H49.6634C52.5334 14.79 54.6107 15.569 55.8954 17.127C57.2074 18.685 57.8634 20.9673 57.8634 23.974C57.8634 26.68 57.1664 28.7847 55.7724 30.288C54.3784 31.7913 52.3557 32.543 49.7044 32.543H46.0554V48H41.4224V14.79ZM48.1874 29.222C49.554 29.222 50.6064 29.0717 51.3444 28.771C52.1097 28.4703 52.6564 27.951 52.9844 27.213C53.3124 26.475 53.4764 25.409 53.4764 24.015C53.4764 22.3203 53.3534 21.0767 53.1074 20.284C52.8614 19.4913 52.3694 18.931 51.6314 18.603C50.9207 18.275 49.7864 18.111 48.2284 18.111H46.0554V29.222H48.1874ZM69.6086 48.369C66.3559 48.369 64.0189 47.4533 62.5976 45.622C61.2036 43.7633 60.5066 41.0847 60.5066 37.586V24.999C60.5066 21.555 61.2172 18.9447 62.6386 17.168C64.0599 15.3913 66.3832 14.503 69.6086 14.503C72.8339 14.503 75.1436 15.405 76.5376 17.209C77.9589 18.9857 78.6696 21.5823 78.6696 24.999V37.627C78.6696 41.071 77.9589 43.7223 76.5376 45.581C75.1162 47.4397 72.8066 48.369 69.6086 48.369ZM69.6086 44.72C71.3306 44.72 72.4922 44.2143 73.0936 43.203C73.6949 42.1917 73.9956 40.661 73.9956 38.611V24.056C73.9956 22.0333 73.6949 20.5437 73.0936 19.587C72.4922 18.603 71.3306 18.111 69.6086 18.111C67.8592 18.111 66.6839 18.603 66.0826 19.587C65.4812 20.5437 65.1806 22.0333 65.1806 24.056V38.611C65.1806 40.661 65.4812 42.1917 66.0826 43.203C66.6839 44.2143 67.8592 44.72 69.6086 44.72ZM83.2231 14.79H87.3231V37.791L97.0401 14.79H100.361V48H96.3021V24.63L86.6671 48H83.2231V14.79ZM92.2021 12.207C90.3435 12.207 88.9768 11.7013 88.1021 10.69C87.2548 9.67867 86.8311 8.32567 86.8311 6.631H89.3731C89.4005 7.66966 89.6328 8.44866 90.0701 8.968C90.5075 9.46 91.2181 9.706 92.2021 9.706C94.0881 9.706 95.0311 8.681 95.0311 6.631H97.6141C97.6141 8.32567 97.1768 9.67867 96.3021 10.69C95.4548 11.7013 94.0881 12.207 92.2021 12.207ZM114.934 14.79H119.567V29.14H128.095V14.79H132.728V48H128.095V32.461H119.567V48H114.934V14.79ZM137.916 14.79H150.79V18.234H142.549V29.222H149.232V32.502H142.549V44.679H150.872V48H137.916V14.79ZM152.481 44.679H153.998C154.954 43.8863 155.747 42.8887 156.376 41.686C157.032 40.4833 157.606 38.5427 158.098 35.864C158.617 33.158 158.986 29.4133 159.205 24.63L159.738 14.79H173.637V44.679H176.835V54.027H173.268L172.899 48H156.417L156.048 54.027H152.481V44.679ZM169.045 44.679V18.234H163.674L163.346 25.737C163.154 30.3563 162.826 33.9097 162.362 36.397C161.897 38.8843 161.364 40.6473 160.763 41.686C160.161 42.6973 159.341 43.695 158.303 44.679H169.045ZM188.805 48.369C185.552 48.369 183.215 47.4533 181.794 45.622C180.4 43.7633 179.703 41.0847 179.703 37.586V24.999C179.703 21.555 180.414 18.9447 181.835 17.168C183.256 15.3913 185.58 14.503 188.805 14.503C192.03 14.503 194.34 15.405 195.734 17.209C197.155 18.9857 197.866 21.5823 197.866 24.999V37.627C197.866 41.071 197.155 43.7223 195.734 45.581C194.313 47.4397 192.003 48.369 188.805 48.369ZM188.805 44.72C190.527 44.72 191.689 44.2143 192.29 43.203C192.891 42.1917 193.192 40.661 193.192 38.611V24.056C193.192 22.0333 192.891 20.5437 192.29 19.587C191.689 18.603 190.527 18.111 188.805 18.111C187.056 18.111 185.88 18.603 185.279 19.587C184.678 20.5437 184.377 22.0333 184.377 24.056V38.611C184.377 40.661 184.678 42.1917 185.279 43.203C185.88 44.2143 187.056 44.72 188.805 44.72ZM202.419 14.79H210.66C213.53 14.79 215.608 15.569 216.892 17.127C218.204 18.685 218.86 20.9673 218.86 23.974C218.86 26.68 218.163 28.7847 216.769 30.288C215.375 31.7913 213.353 32.543 210.701 32.543H207.052V48H202.419V14.79ZM209.184 29.222C210.551 29.222 211.603 29.0717 212.341 28.771C213.107 28.4703 213.653 27.951 213.981 27.213C214.309 26.475 214.473 25.409 214.473 24.015C214.473 22.3203 214.35 21.0767 214.104 20.284C213.858 19.4913 213.366 18.931 212.628 18.603C211.918 18.275 210.783 18.111 209.225 18.111H207.052V29.222H209.184ZM230.606 48.369C227.353 48.369 225.016 47.4533 223.595 45.622C222.201 43.7633 221.504 41.0847 221.504 37.586V24.999C221.504 21.555 222.214 18.9447 223.636 17.168C225.057 15.3913 227.38 14.503 230.606 14.503C233.831 14.503 236.141 15.405 237.535 17.209C238.956 18.9857 239.667 21.5823 239.667 24.999V37.627C239.667 41.071 238.956 43.7223 237.535 45.581C236.113 47.4397 233.804 48.369 230.606 48.369ZM230.606 44.72C232.328 44.72 233.489 44.2143 234.091 43.203C234.692 42.1917 234.993 40.661 234.993 38.611V24.056C234.993 22.0333 234.692 20.5437 234.091 19.587C233.489 18.603 232.328 18.111 230.606 18.111C228.856 18.111 227.681 18.603 227.08 19.587C226.478 20.5437 226.178 22.0333 226.178 24.056V38.611C226.178 40.661 226.478 42.1917 227.08 43.203C227.681 44.2143 228.856 44.72 230.606 44.72ZM244.22 14.79H256.848V18.234H248.853V48H244.22V14.79ZM268.523 48.369C265.27 48.369 262.933 47.4533 261.512 45.622C260.118 43.7633 259.421 41.0847 259.421 37.586V24.999C259.421 21.555 260.131 18.9447 261.553 17.168C262.974 15.3913 265.297 14.503 268.523 14.503C271.748 14.503 274.058 15.405 275.452 17.209C276.873 18.9857 277.584 21.5823 277.584 24.999V37.627C277.584 41.071 276.873 43.7223 275.452 45.581C274.03 47.4397 271.721 48.369 268.523 48.369ZM268.523 44.72C270.245 44.72 271.406 44.2143 272.008 43.203C272.609 42.1917 272.91 40.661 272.91 38.611V24.056C272.91 22.0333 272.609 20.5437 272.008 19.587C271.406 18.603 270.245 18.111 268.523 18.111C266.773 18.111 265.598 18.603 264.997 19.587C264.395 20.5437 264.095 22.0333 264.095 24.056V38.611C264.095 40.661 264.395 42.1917 264.997 43.203C265.598 44.2143 266.773 44.72 268.523 44.72Z" fill="white"/>
<path d="M10.9017 70.0715H9.58066C9.50253 69.6916 9.36581 69.3578 9.1705 69.0701C8.97874 68.7825 8.74436 68.541 8.46737 68.3457C8.19394 68.1468 7.89031 67.9977 7.55651 67.8982C7.2227 67.7988 6.87469 67.7491 6.51247 67.7491C5.85196 67.7491 5.2536 67.916 4.71737 68.2498C4.1847 68.5836 3.76034 69.0754 3.44429 69.7253C3.13179 70.3752 2.97554 71.1724 2.97554 72.117C2.97554 73.0616 3.13179 73.8588 3.44429 74.5087C3.76034 75.1585 4.1847 75.6504 4.71737 75.9842C5.2536 76.318 5.85196 76.4849 6.51247 76.4849C6.87469 76.4849 7.2227 76.4352 7.55651 76.3357C7.89031 76.2363 8.19394 76.0889 8.46737 75.8936C8.74436 75.6948 8.97874 75.4515 9.1705 75.1639C9.36581 74.8727 9.50253 74.5389 9.58066 74.1624H10.9017C10.8022 74.72 10.6211 75.2189 10.3584 75.6592C10.0956 76.0996 9.76887 76.4742 9.37824 76.7832C8.98762 77.0886 8.54905 77.3212 8.06254 77.481C7.57959 77.6408 7.0629 77.7207 6.51247 77.7207C5.58208 77.7207 4.75466 77.4934 4.03023 77.0389C3.3058 76.5843 2.73584 75.938 2.32036 75.0999C1.90487 74.2619 1.69713 73.2676 1.69713 72.117C1.69713 70.9664 1.90487 69.9721 2.32036 69.134C2.73584 68.296 3.3058 67.6497 4.03023 67.1951C4.75466 66.7406 5.58208 66.5133 6.51247 66.5133C7.0629 66.5133 7.57959 66.5932 8.06254 66.753C8.54905 66.9128 8.98762 67.1472 9.37824 67.4561C9.76887 67.7615 10.0956 68.1344 10.3584 68.5747C10.6211 69.0115 10.8022 69.5105 10.9017 70.0715ZM12.4398 67.8343V66.6624H20.6216V67.8343H17.1912V77.5715H15.8702V67.8343H12.4398ZM22.6604 77.5715V66.6624H26.3465C27.2023 66.6624 27.9019 66.8169 28.4452 67.1259C28.9921 67.4313 29.3969 67.845 29.6597 68.367C29.9225 68.889 30.0538 69.4714 30.0538 70.1141C30.0538 70.7569 29.9225 71.3411 29.6597 71.8666C29.4004 72.3922 28.9992 72.8112 28.4558 73.1237C27.9125 73.4327 27.2165 73.5872 26.3678 73.5872H23.7257V72.4153H26.3252C26.9111 72.4153 27.3816 72.3141 27.7367 72.1117C28.0918 71.9092 28.3493 71.6358 28.5091 71.2913C28.6725 70.9433 28.7541 70.5509 28.7541 70.1141C28.7541 69.6774 28.6725 69.2867 28.5091 68.9423C28.3493 68.5978 28.0901 68.3279 27.7314 68.1326C27.3727 67.9337 26.8969 67.8343 26.3038 67.8343H23.9814V77.5715H22.6604ZM41.3864 72.117C41.3864 73.2676 41.1787 74.2619 40.7632 75.0999C40.3477 75.938 39.7777 76.5843 39.0533 77.0389C38.3289 77.4934 37.5015 77.7207 36.5711 77.7207C35.6407 77.7207 34.8133 77.4934 34.0888 77.0389C33.3644 76.5843 32.7944 75.938 32.379 75.0999C31.9635 74.2619 31.7557 73.2676 31.7557 72.117C31.7557 70.9664 31.9635 69.9721 32.379 69.134C32.7944 68.296 33.3644 67.6497 34.0888 67.1951C34.8133 66.7406 35.6407 66.5133 36.5711 66.5133C37.5015 66.5133 38.3289 66.7406 39.0533 67.1951C39.7777 67.6497 40.3477 68.296 40.7632 69.134C41.1787 69.9721 41.3864 70.9664 41.3864 72.117ZM40.108 72.117C40.108 71.1724 39.95 70.3752 39.6339 69.7253C39.3214 69.0754 38.8971 68.5836 38.3608 68.2498C37.8282 67.916 37.2316 67.7491 36.5711 67.7491C35.9106 67.7491 35.3122 67.916 34.776 68.2498C34.2433 68.5836 33.8189 69.0754 33.5029 69.7253C33.1904 70.3752 33.0341 71.1724 33.0341 72.117C33.0341 73.0616 33.1904 73.8588 33.5029 74.5087C33.8189 75.1585 34.2433 75.6504 34.776 75.9842C35.3122 76.318 35.9106 76.4849 36.5711 76.4849C37.2316 76.4849 37.8282 76.318 38.3608 75.9842C38.8971 75.6504 39.3214 75.1585 39.6339 74.5087C39.95 73.8588 40.108 73.0616 40.108 72.117ZM43.6076 66.6624H44.9074V75.2491H45.0139L50.9798 66.6624H52.2582V77.5715H50.9372V69.0062H50.8307L44.8861 77.5715H43.6076V66.6624ZM54.305 67.8343V66.6624H62.4868V67.8343H59.0564V77.5715H57.7354V67.8343H54.305ZM64.5256 77.5715V66.6624H71.1094V67.8343H65.8466V71.5204H70.7685V72.6923H65.8466V76.3997H71.1946V77.5715H64.5256ZM72.553 77.5715V76.357H72.8726C73.3271 76.357 73.6804 76.2114 73.9326 75.9203C74.1847 75.6291 74.3658 75.1585 74.4759 74.5087C74.5895 73.8588 74.6659 72.9977 74.7049 71.9252L74.8967 66.6624H81.5444V77.5715H80.2234V67.8343H76.1538L75.9834 72.1809C75.9407 73.3244 75.836 74.2974 75.6691 75.0999C75.5022 75.9025 75.2092 76.5151 74.7902 76.9377C74.3711 77.3602 73.7603 77.5715 72.9578 77.5715H72.553ZM85.1639 71.2434H88.2747C89.056 71.2434 89.7147 71.3712 90.2509 71.6269C90.7907 71.8826 91.1991 72.2431 91.4761 72.7083C91.7566 73.1735 91.8969 73.7221 91.8969 74.3542C91.8969 74.9863 91.7566 75.5438 91.4761 76.0268C91.1991 76.5097 90.7907 76.8879 90.2509 77.1614C89.7147 77.4348 89.056 77.5715 88.2747 77.5715H84.1838V66.6624H85.5048V76.421H88.2747C88.7719 76.421 89.1927 76.3215 89.5372 76.1227C89.8852 75.9203 90.1479 75.661 90.3255 75.345C90.5066 75.0254 90.5972 74.688 90.5972 74.3329C90.5972 73.8109 90.3965 73.3617 89.9953 72.9852C89.594 72.6053 89.0205 72.4153 88.2747 72.4153H85.1639V71.2434ZM93.9836 77.5715V66.6624H95.3046V71.5204H101.121V66.6624H102.442V77.5715H101.121V72.6923H95.3046V77.5715H93.9836ZM106.067 71.2434H109.178C109.959 71.2434 110.618 71.3712 111.154 71.6269C111.694 71.8826 112.102 72.2431 112.379 72.7083C112.66 73.1735 112.8 73.7221 112.8 74.3542C112.8 74.9863 112.66 75.5438 112.379 76.0268C112.102 76.5097 111.694 76.8879 111.154 77.1614C110.618 77.4348 109.959 77.5715 109.178 77.5715H105.087V66.6624H106.408V76.421H109.178C109.675 76.421 110.096 76.3215 110.44 76.1227C110.788 75.9203 111.051 75.661 111.229 75.345C111.41 75.0254 111.5 74.688 111.5 74.3329C111.5 73.8109 111.3 73.3617 110.899 72.9852C110.497 72.6053 109.924 72.4153 109.178 72.4153H106.067V71.2434ZM115.187 66.6624V77.5715H113.866V66.6624H115.187ZM117.831 77.5715V66.6624H124.415V67.8343H119.152V71.5204H124.074V72.6923H119.152V76.3997H124.5V77.5715H117.831ZM131.015 66.6624H132.592L136.299 75.7178H136.427L140.134 66.6624H141.711V77.5715H140.475V69.2832H140.369L136.959 77.5715H135.766L132.357 69.2832H132.251V77.5715H131.015V66.6624ZM144.807 77.5715H143.422L147.428 66.6624H148.791L152.797 77.5715H151.412L148.152 68.3883H148.067L144.807 77.5715ZM145.318 73.3102H150.901V74.482H145.318V73.3102ZM152.625 67.8343V66.6624H160.807V67.8343H157.377V77.5715H156.056V67.8343H152.625ZM162.846 77.5715V66.6624H169.43V67.8343H164.167V71.5204H169.089V72.6923H164.167V76.3997H169.515V77.5715H162.846ZM171.811 77.5715V66.6624H175.497C176.353 66.6624 177.052 66.8169 177.596 67.1259C178.142 67.4313 178.547 67.845 178.81 68.367C179.073 68.889 179.204 69.4714 179.204 70.1141C179.204 70.7569 179.073 71.3411 178.81 71.8666C178.551 72.3922 178.15 72.8112 177.606 73.1237C177.063 73.4327 176.367 73.5872 175.518 73.5872H172.876V72.4153H175.476C176.061 72.4153 176.532 72.3141 176.887 72.1117C177.242 71.9092 177.5 71.6358 177.659 71.2913C177.823 70.9433 177.905 70.5509 177.905 70.1141C177.905 69.6774 177.823 69.2867 177.659 68.9423C177.5 68.5978 177.24 68.3279 176.882 68.1326C176.523 67.9337 176.047 67.8343 175.454 67.8343H173.132V77.5715H171.811ZM181.332 66.6624H182.632V75.2491H182.739L188.704 66.6624H189.983V77.5715H188.662V69.0062H188.555L182.611 77.5715H181.332V66.6624ZM193.074 77.5715H191.689L195.694 66.6624H197.058L201.064 77.5715H199.679L196.419 68.3883H196.334L193.074 77.5715ZM193.585 73.3102H199.167V74.482H193.585V73.3102ZM201.825 77.5715V76.357H202.145C202.6 76.357 202.953 76.2114 203.205 75.9203C203.457 75.6291 203.638 75.1585 203.748 74.5087C203.862 73.8588 203.938 72.9977 203.977 71.9252L204.169 66.6624H210.817V77.5715H209.496V67.8343H205.426L205.256 72.1809C205.213 73.3244 205.108 74.2974 204.942 75.0999C204.775 75.9025 204.482 76.5151 204.063 76.9377C203.644 77.3602 203.033 77.5715 202.23 77.5715H201.825ZM214.436 71.2434H217.547C218.328 71.2434 218.987 71.3712 219.523 71.6269C220.063 71.8826 220.472 72.2431 220.749 72.7083C221.029 73.1735 221.169 73.7221 221.169 74.3542C221.169 74.9863 221.029 75.5438 220.749 76.0268C220.472 76.5097 220.063 76.8879 219.523 77.1614C218.987 77.4348 218.328 77.5715 217.547 77.5715H213.456V66.6624H214.777V76.421H217.547C218.044 76.421 218.465 76.3215 218.81 76.1227C219.158 75.9203 219.42 75.661 219.598 75.345C219.779 75.0254 219.87 74.688 219.87 74.3329C219.87 73.8109 219.669 73.3617 219.268 72.9852C218.866 72.6053 218.293 72.4153 217.547 72.4153H214.436V71.2434ZM223.556 66.6624V77.5715H222.235V66.6624H223.556Z" fill="white" fill-opacity="0.8"/>
</svg>
