<svg width="24" height="24" viewBox="0 0 24 24" fill="none" xmlns="http://www.w3.org/2000/svg">
<path d="M12.2197 2.21753H12.2149C6.9409 2.21753 2.6521 6.50753 2.6521 11.7827C2.6521 13.8751 3.32645 15.8145 4.47308 17.3892L3.28101 20.9426L6.95764 19.7673C8.47014 20.7693 10.2744 21.348 12.2197 21.348C17.4937 21.348 21.7825 17.0568 21.7825 11.7827C21.7825 6.50873 17.4937 2.21753 12.2197 2.21753ZM17.7855 15.7248C17.5547 16.3764 16.6388 16.9169 15.9083 17.0747C15.4085 17.1811 14.7557 17.266 12.5581 16.3549C9.7471 15.1904 7.93688 12.3339 7.7958 12.1486C7.66069 11.9633 6.65993 10.6361 6.65993 9.26351C6.65993 7.8909 7.35699 7.22253 7.63797 6.93557C7.86873 6.70003 8.25014 6.59242 8.61601 6.59242C8.73438 6.59242 8.8408 6.5984 8.93645 6.60318C9.21743 6.61514 9.35851 6.63188 9.54384 7.07546C9.7746 7.63144 10.3366 9.00405 10.4035 9.14514C10.4717 9.28623 10.5398 9.47753 10.4442 9.66286C10.3545 9.85416 10.2756 9.93905 10.1345 10.1017C9.9934 10.2643 9.85949 10.3886 9.7184 10.5632C9.58927 10.715 9.4434 10.8776 9.60601 11.1586C9.76862 11.4336 10.3306 12.3507 11.158 13.0872C12.2257 14.0377 13.0913 14.3414 13.401 14.4706C13.6318 14.5662 13.9068 14.5435 14.0754 14.3642C14.2894 14.1334 14.5536 13.7508 14.8226 13.3742C15.0139 13.1039 15.2555 13.0705 15.5089 13.1661C15.7672 13.2558 17.1338 13.9313 17.4148 14.0712C17.6958 14.2123 17.8811 14.2793 17.9493 14.3976C18.0162 14.516 18.0162 15.072 17.7855 15.7248Z" fill="white"/>
</svg>
